<?xml version="1.0" encoding="utf-8"?>
<!-- Generator: Adobe Illustrator 24.2.1, SVG Export Plug-In . SVG Version: 6.00 Build 0)  -->
<svg version="1.1" xmlns="http://www.w3.org/2000/svg" xmlns:xlink="http://www.w3.org/1999/xlink" x="0px" y="0px"
	 viewBox="0 0 100 125" style="enable-background:new 0 0 100 125;" xml:space="preserve">
<style type="text/css">
	.st0{fill:#FFFFFF;}
</style>
<g id="Livello_2">
</g>
<g id="Livello_1">
	<g>
		<path class="st0" d="M8.9,65.6l9.2,0.9l36.3-36.3V14.5c0-2.7-3.1-4.2-5.3-2.5L23.3,33.1L8.9,34.5c-3,0.3-5.3,2.8-5.3,5.8v19.5
			C3.6,62.8,5.9,65.3,8.9,65.6z"/>
		<path class="st0" d="M97.1,7.5l-4.6-4.6c-0.5-0.5-1.3-0.5-1.8,0L2.9,90.7c-0.5,0.5-0.5,1.3,0,1.8l4.6,4.6c0.5,0.5,1.3,0.5,1.8,0
			l22.9-22.9L49.1,88c2.1,1.7,5.3,0.2,5.3-2.5V52l15.5-15.5c2.1,4,3.3,8.5,3.3,13.4c0,6.8-2.3,13-6.3,17.9c-0.7,0.8-0.5,2,0.2,2.7
			l3.5,3.2c0.9,0.8,2.2,0.6,2.9-0.3c5.2-6.4,8.3-14.6,8.3-23.6c0-7.2-2.1-14-5.6-19.8l4.3-4.3c4.6,6.9,7.3,15.1,7.3,24
			c0,10.5-3.8,20.2-10,27.7c-0.7,0.8-0.6,2,0.2,2.7l3.5,3.2c0.8,0.8,2.1,0.7,2.9-0.2C92,74,96.5,62.4,96.5,49.7
			c0-11.3-3.6-21.7-9.7-30.3L97.2,9C97.6,8.8,97.6,8,97.1,7.5z"/>
	</g>
</g>
</svg>
