<?xml version="1.0" encoding="utf-8"?>
<!-- Generator: Adobe Illustrator 24.2.1, SVG Export Plug-In . SVG Version: 6.00 Build 0)  -->
<svg version="1.1" xmlns="http://www.w3.org/2000/svg" xmlns:xlink="http://www.w3.org/1999/xlink" x="0px" y="0px"
	 viewBox="0 0 100 125" style="enable-background:new 0 0 100 125;" xml:space="preserve">
<style type="text/css">
	.st0{fill:#FFFFFF;}
</style>
<g id="Livello_2">
</g>
<g id="Livello_1">
	<g>
		<polygon class="st0" points="53.9,9.7 24.1,32.5 2.5,34.4 2.5,34.4 2.5,65.6 24.1,67.5 53.9,90.3 		"/>
		<path class="st0" d="M72.3,23.9L65.6,30c4.8,5.3,7.7,12.3,7.7,20s-2.9,14.8-7.7,20l6.7,6.1C78.6,69.2,82.4,60,82.4,50
			C82.4,40,78.6,30.8,72.3,23.9z"/>
		<path class="st0" d="M83.5,13.7l-6.7,6.1c7.2,8,11.7,18.6,11.7,30.2c0,11.6-4.4,22.2-11.7,30.2l6.7,6.1c8.7-9.6,14-22.3,14-36.3
			C97.5,36,92.2,23.3,83.5,13.7z"/>
	</g>
</g>
</svg>
